<?xml version="1.0" encoding="utf-8"?>
<!-- Generator: Adobe Illustrator 17.0.0, SVG Export Plug-In . SVG Version: 6.00 Build 0)  -->
<!DOCTYPE svg PUBLIC "-//W3C//DTD SVG 1.1//EN" "http://www.w3.org/Graphics/SVG/1.1/DTD/svg11.dtd">
<svg version="1.1" id="Layer_1" xmlns="http://www.w3.org/2000/svg" xmlns:xlink="http://www.w3.org/1999/xlink" x="0px" y="0px"
	 width="129px" height="28px" viewBox="0 0 129 28" enable-background="new 0 0 129 28" xml:space="preserve">
<g>
	<path fill="#C5A572" d="M64.408,1.619l0.929,0.689c0.21-0.055,0.806-0.537,1.038-0.689c-0.079-0.104-0.83-0.641-0.983-0.742
		C65.183,0.985,64.524,1.451,64.408,1.619"/>
	<g>
		<path fill="#C5A572" d="M59.383,4.638c-1.149,0-1.658,0.023-2.809-0.294C56.21,4.243,56.03,4.202,55.699,4.08
			c-0.21-0.078-0.669-0.273-0.851-0.288l0.949,3.423c0.045,0.183,0.053,0.392,0.253,0.392h8.901c0.269,0,0.164-0.645,0.164-1.165
			V2.414c-0.17,0.038-0.97,0.608-1.19,0.752C62.769,3.923,60.913,4.638,59.383,4.638"/>
		<path fill="#C5A572" d="M74.84,7.603c0.03-0.349,0.977-3.518,0.983-3.813l-1.195,0.43c-1.482,0.44-2.847,0.572-4.424,0.304
			c-0.451-0.076-0.937-0.216-1.325-0.355c-0.213-0.076-0.398-0.137-0.592-0.221c-0.757-0.332-1.479-0.714-2.147-1.201
			c-0.167-0.122-0.327-0.281-0.53-0.334v4.343c0,0.212-0.079,0.729,0.079,0.823C65.805,7.648,74.253,7.603,74.84,7.603"/>
		<path fill="#C5A572" d="M50.1,6.068c-1.461,0-2.667-0.469-3.003-0.476c0.101,0.183,0.195,0.311,0.317,0.488l0.993,1.472h7.045
			c-0.081-0.162-0.183-0.641-0.25-0.869l-0.483-1.81c-0.094-0.319-0.175-0.61-0.25-0.922c-0.174,0.045-0.117,0.053-0.213,0.164
			c-0.076,0.088-0.121,0.131-0.2,0.23C53.194,5.415,51.558,6.068,50.1,6.068"/>
		<path fill="#C5A572" d="M75.276,7.55h7.1c0.063-0.225,1.039-1.562,1.256-1.96c-0.471,0.038-1.223,0.476-3.059,0.476
			c-0.993,0-1.932-0.286-2.565-0.638c-0.307-0.172-0.694-0.426-0.945-0.673c-0.288-0.281-0.34-0.296-0.577-0.607l-0.228-0.202
			c-0.145,0.607-0.329,1.218-0.481,1.811L75.276,7.55z"/>
		<path fill="#C5A572" d="M48.406,8.187v0.159h33.915c0-0.215,0.03-0.317-0.164-0.317H48.57C48.444,8.028,48.406,8.064,48.406,8.187
			"/>
		<path fill="#C5A572" d="M53.759,3.049c0.2,0.051,0.529,0.359,0.711,0.476c0.183-0.048,0.692-0.433,0.765-0.529
			c-0.094-0.136-0.198-0.2-0.344-0.302c-0.074-0.053-0.116-0.081-0.188-0.136c-0.069-0.053-0.122-0.098-0.178-0.144
			C54.318,2.546,53.823,2.814,53.759,3.049"/>
		<path fill="#C5A572" d="M75.494,2.996c0.099,0.132,0.542,0.443,0.711,0.53c0.354-0.182,0.573-0.426,0.765-0.478
			c-0.048-0.177-0.063-0.127-0.327-0.317c-0.086-0.063-0.322-0.264-0.438-0.264C76.081,2.467,75.567,2.892,75.494,2.996"/>
		<path fill="#C5A572" d="M46.385,5.167c0.24,0.055,0.45,0.207,0.711,0.264c0.111-0.16,0.327-0.329,0.382-0.529
			c-0.195-0.091-0.552-0.259-0.765-0.264C46.65,4.871,46.45,4.934,46.385,5.167"/>
		<path fill="#C5A572" d="M83.25,4.903c0.055,0.2,0.271,0.369,0.382,0.53c0.215-0.048,0.522-0.177,0.711-0.264
			c-0.119-0.218-0.25-0.339-0.382-0.529C83.699,4.696,83.489,4.848,83.25,4.903"/>
		<path d="M52.087,24.314c0.017-4.115-0.074-8.008-0.056-12.122c0.345-1.264,4.457-1.532,4.647,0.159
			c0,4.115,0.059,8.042,0.059,12.156c-0.198,0.876-0.995,1.18-2.388,1.167C52.873,25.658,52.017,25.215,52.087,24.314
			 M53.614,27.114c1.39,0,2.862,0.124,4.004-0.544c0.529-0.309,1.238-0.955,1.238-1.735V12.257c0-0.901-0.491-1.463-1.033-1.848
			c-0.521-0.37-1.33-0.694-2.221-0.694h-2.441c-1.201,0-2.524,0.592-3.014,1.547c-0.226,0.44-0.24,0.668-0.24,1.302
			c0,2.053,0.045,3.965,0.045,6.004c0,2.016-0.002,4.034-0.002,6.05c0,0.922,0.602,1.515,1.177,1.884
			C51.761,26.907,52.563,27.114,53.614,27.114"/>
		<path d="M63.356,11.17h2.593c1.102,0,2.005,0.874,2.005,1.943v2.528c0,1.069-0.902,1.943-2.005,1.943h-2.593V11.17z
			 M61.206,24.747c0,0.798,0.045,1.439,0.045,2.236h2.259v-7.932c1.403,0,1.026-0.202,1.611,0.935
			c0.178,0.347,0.34,0.659,0.512,0.993c0.17,0.329,0.327,0.678,0.497,1.008l1.552,3.009c0.16,0.312,0.978,1.839,1.025,2.031h2.486
			c-0.443-0.813-1.172-2.271-1.625-3.026c-0.193-0.322-0.349-0.684-0.542-1.008l-0.545-1.005c-0.089-0.165-0.164-0.317-0.256-0.497
			c-0.102-0.2-0.192-0.334-0.288-0.511l-0.542-1.008c-0.089-0.165-0.164-0.317-0.256-0.497c-0.102-0.202-0.19-0.334-0.286-0.511
			c0.626,0,1.696-0.337,2.196-0.719c0.564-0.43,0.922-1.044,0.922-1.998v-3.462c0-1.573-0.97-2.37-2.504-2.743
			C66.669,9.849,65.977,9.849,65,9.849c-0.492,0-0.813-0.045-1.311-0.043h-2.486v14.941H61.206z"/>
		<path d="M72.369,10.196v12.841c0,1.155-0.018,2.243,0.823,3.059c1.208,1.172,3.427,0.973,5.097,0.973
			c0.739,0,1.567-0.331,2.026-0.621c1.519-0.962,1.228-2.512,1.228-3.892v-1.271c0-0.478-0.048-0.843-0.046-1.271
			c0.01-1.762-0.045-3.385-0.045-5.128l-0.045-3.813c0-0.479-0.045-0.838-0.045-1.271l-2.079,0.438v13.454
			c0,1.046,0.02,1.778-1.497,1.922c-0.874,0.083-2.257,0.023-2.874-0.488c-0.454-0.377-0.373-1.081-0.373-1.872V9.758
			c-0.17,0.013-0.327,0.069-0.524,0.106L72.369,10.196z"/>
		<path d="M83.937,12.65v1.008c0,0.633,0.139,1.168,0.311,1.628c0.342,0.916,0.952,1.633,1.644,2.305
			c1.393,1.352,1.988,1.588,3.353,2.621c0.418,0.317,0.699,0.585,1.013,0.99c0.233,0.299,0.593,0.897,0.593,1.396v1.929
			c0,0.339-0.248,0.714-0.469,0.859c-0.618,0.405-1.937,0.281-2.829,0.281c-0.811,0-1.497-0.618-1.492-1.534
			c0.005-0.993,0.002-1.988,0.002-2.981c-0.207,0.017-1.271,0.39-1.61,0.499c-0.162,0.053-0.469,0.093-0.469,0.246v2.849
			c0,0.342,0.178,0.697,0.324,0.912c0.499,0.735,1.677,1.279,2.568,1.279h3.616c0.552,0,1.484-0.425,1.815-0.826
			c0.762-0.92,0.625-2.143,0.625-3.338c0-1.112-0.613-2.178-1.187-2.75c-0.251-0.25-0.059-0.152-0.492-0.488
			c-0.102-0.079-0.155-0.15-0.253-0.236l-3.51-2.995c-0.131-0.098-0.154-0.137-0.264-0.226c-0.16-0.127-0.484-0.172-0.787-0.727
			c-0.453-0.826-0.375-1.795-0.375-2.747c0-1.729,1.682-1.491,3.074-1.491c0.752,0,1.626,0.388,1.626,1.096v3.375
			c0.218-0.005,0.37-0.114,0.568-0.195l1.385-0.587c0.117-0.045,0.216-0.046,0.216-0.183v-2.892c0-0.416-0.2-0.77-0.393-1.021
			c-0.218-0.283-0.466-0.456-0.811-0.616c-1.17-0.54-3.018-0.423-4.445-0.423c-0.878,0-1.803,0.274-2.441,0.744
			C84.256,10.844,83.937,11.652,83.937,12.65"/>
		<path d="M43.13,17.603c-0.02-0.23-2.132-5.383-2.322-5.9l-0.797-1.988c-0.283,0.023-1.823,0.562-2.17,0.57
			c0.021,0.243,2.821,6.48,3.193,7.29c0.19,0.415,0.35,0.773,0.532,1.193c0.086,0.2,0.522,1.111,0.522,1.246v6.924h2.079v-6.924
			c0-0.233,0.367-0.99,0.478-1.246c1.036-2.393,2.048-4.87,3.105-7.243l0.53-1.239l-1.553-0.466
			c-0.187-0.053-0.335-0.132-0.526-0.147l-0.378,0.992c-0.063,0.178-0.112,0.299-0.183,0.479l-2.279,5.986
			C43.288,17.32,43.28,17.497,43.13,17.603"/>
	</g>
</g>
</svg>
