<?xml version="1.0" encoding="utf-8"?>
<!-- Generator: Adobe Illustrator 17.0.0, SVG Export Plug-In . SVG Version: 6.00 Build 0)  -->
<!DOCTYPE svg PUBLIC "-//W3C//DTD SVG 1.1//EN" "http://www.w3.org/Graphics/SVG/1.1/DTD/svg11.dtd">
<svg version="1.1" id="Layer_1" xmlns="http://www.w3.org/2000/svg" xmlns:xlink="http://www.w3.org/1999/xlink" x="0px" y="0px"
	 width="129px" height="28px" viewBox="0 0 129 28" enable-background="new 0 0 129 28" xml:space="preserve">
<g>
	<path fill="#C5A572" d="M62.947,1.408l0.945,0.701c0.213-0.055,0.82-0.546,1.056-0.701c-0.081-0.106-0.844-0.652-1-0.755
		C63.735,0.762,63.065,1.236,62.947,1.408"/>
	<g>
		<path fill="#C5A572" d="M57.836,4.479c-1.168,0-1.686,0.024-2.857-0.299c-0.37-0.103-0.553-0.145-0.889-0.269
			c-0.213-0.079-0.681-0.277-0.866-0.292l0.965,3.481c0.045,0.187,0.054,0.398,0.257,0.398h9.053c0.274,0,0.166-0.656,0.166-1.185
			V2.216c-0.173,0.039-0.987,0.619-1.21,0.765C61.28,3.751,59.392,4.479,57.836,4.479"/>
		<path fill="#C5A572" d="M73.556,7.494c0.03-0.355,0.993-3.578,1-3.878l-1.215,0.437c-1.508,0.447-2.896,0.582-4.5,0.309
			c-0.459-0.077-0.953-0.22-1.348-0.361c-0.217-0.077-0.405-0.14-0.602-0.225c-0.77-0.338-1.504-0.726-2.183-1.222
			c-0.17-0.124-0.333-0.286-0.54-0.34v4.417c0,0.215-0.081,0.741,0.081,0.837C64.367,7.539,72.96,7.494,73.556,7.494"/>
		<path fill="#C5A572" d="M48.395,5.933c-1.486,0-2.713-0.477-3.054-0.484c0.103,0.187,0.198,0.316,0.323,0.496l1.01,1.498h7.165
			c-0.082-0.165-0.187-0.652-0.254-0.884l-0.491-1.84c-0.096-0.324-0.178-0.62-0.254-0.938c-0.176,0.045-0.119,0.054-0.217,0.166
			c-0.077,0.089-0.123,0.133-0.203,0.234C51.541,5.269,49.877,5.933,48.395,5.933"/>
		<path fill="#C5A572" d="M74,7.44h7.221c0.064-0.229,1.057-1.588,1.277-1.993c-0.479,0.039-1.244,0.484-3.111,0.484
			c-1.01,0-1.965-0.291-2.609-0.649c-0.313-0.175-0.706-0.434-0.961-0.684c-0.292-0.286-0.346-0.301-0.587-0.617l-0.232-0.205
			c-0.148,0.617-0.334,1.239-0.489,1.842L74,7.44z"/>
		<path fill="#C5A572" d="M46.672,8.087v0.161h34.494c0-0.219,0.03-0.323-0.166-0.323H46.838
			C46.711,7.926,46.672,7.963,46.672,8.087"/>
		<path fill="#C5A572" d="M52.116,2.862c0.203,0.052,0.538,0.365,0.723,0.484c0.187-0.049,0.704-0.44,0.778-0.538
			c-0.096-0.138-0.202-0.203-0.35-0.308c-0.076-0.054-0.118-0.082-0.192-0.138c-0.071-0.054-0.124-0.099-0.182-0.146
			C52.684,2.351,52.182,2.623,52.116,2.862"/>
		<path fill="#C5A572" d="M74.222,2.808c0.101,0.134,0.551,0.45,0.723,0.54c0.36-0.185,0.583-0.434,0.778-0.486
			c-0.049-0.18-0.064-0.129-0.333-0.323c-0.087-0.064-0.328-0.269-0.445-0.269C74.819,2.27,74.296,2.702,74.222,2.808"/>
		<path fill="#C5A572" d="M44.616,5.016c0.244,0.055,0.457,0.21,0.723,0.269c0.113-0.163,0.333-0.334,0.388-0.538
			c-0.198-0.092-0.561-0.264-0.778-0.269C44.885,4.716,44.682,4.78,44.616,5.016"/>
		<path fill="#C5A572" d="M82.11,4.748c0.055,0.203,0.276,0.375,0.388,0.54c0.218-0.049,0.531-0.18,0.723-0.269
			C83.1,4.796,82.967,4.674,82.833,4.48C82.567,4.537,82.354,4.692,82.11,4.748"/>
		<path fill="#FFFFFF" d="M50.415,24.49c0.017-4.185-0.076-8.145-0.057-12.329c0.351-1.286,4.533-1.558,4.726,0.161
			c0,4.185,0.061,8.179,0.061,12.364c-0.202,0.891-1.012,1.2-2.429,1.187C51.215,25.857,50.344,25.406,50.415,24.49 M51.968,27.338
			c1.414,0,2.911,0.126,4.073-0.553c0.538-0.314,1.259-0.972,1.259-1.765V12.227c0-0.916-0.499-1.488-1.051-1.879
			c-0.529-0.377-1.353-0.706-2.259-0.706h-2.483c-1.222,0-2.567,0.602-3.066,1.573c-0.23,0.447-0.244,0.679-0.244,1.324
			c0,2.088,0.045,4.032,0.045,6.106c0,2.051-0.002,4.103-0.002,6.153c0,0.938,0.612,1.541,1.197,1.916
			C50.084,27.128,50.899,27.338,51.968,27.338"/>
		<path fill="#FFFFFF" d="M61.876,11.121h2.637c1.121,0,2.039,0.889,2.039,1.977v2.572c0,1.087-0.918,1.977-2.039,1.977h-2.637
			V11.121z M59.69,24.931c0,0.812,0.045,1.464,0.045,2.274h2.298v-8.068c1.427,0,1.044-0.205,1.639,0.951
			c0.182,0.353,0.346,0.671,0.521,1.01c0.173,0.334,0.333,0.689,0.506,1.025l1.578,3.061c0.163,0.318,0.995,1.871,1.042,2.066h2.528
			c-0.45-0.827-1.192-2.309-1.652-3.078c-0.197-0.328-0.355-0.696-0.551-1.025l-0.555-1.022c-0.091-0.168-0.166-0.323-0.261-0.506
			c-0.104-0.203-0.195-0.34-0.292-0.519l-0.551-1.025c-0.091-0.168-0.166-0.323-0.261-0.506c-0.104-0.205-0.193-0.34-0.291-0.519
			c0.637,0,1.725-0.343,2.234-0.731c0.573-0.437,0.938-1.062,0.938-2.032v-3.521c0-1.6-0.987-2.41-2.546-2.79
			c-0.812-0.197-1.516-0.197-2.509-0.197c-0.501,0-0.827-0.045-1.333-0.044h-2.528v15.196H59.69z"/>
		<path fill="#FFFFFF" d="M71.044,10.131v13.06c0,1.175-0.018,2.281,0.837,3.111c1.229,1.192,3.486,0.99,5.184,0.99
			c0.751,0,1.593-0.336,2.061-0.632c1.545-0.978,1.249-2.555,1.249-3.958v-1.293c0-0.486-0.049-0.857-0.047-1.293
			c0.01-1.792-0.045-3.442-0.045-5.216l-0.045-3.878c0-0.487-0.045-0.852-0.045-1.293l-2.114,0.445V23.86
			c0,1.064,0.02,1.809-1.523,1.955c-0.889,0.084-2.296,0.024-2.923-0.496c-0.462-0.383-0.38-1.099-0.38-1.904V9.686
			c-0.173,0.013-0.333,0.071-0.533,0.108L71.044,10.131z"/>
		<path fill="#FFFFFF" d="M82.809,12.627v1.025c0,0.644,0.141,1.188,0.316,1.656c0.348,0.931,0.968,1.661,1.672,2.345
			c1.417,1.375,2.022,1.615,3.41,2.666c0.425,0.323,0.711,0.595,1.03,1.007c0.237,0.304,0.603,0.913,0.603,1.42v1.962
			c0,0.345-0.252,0.726-0.477,0.874c-0.629,0.412-1.97,0.286-2.878,0.286c-0.825,0-1.523-0.629-1.518-1.56
			c0.005-1.01,0.002-2.022,0.002-3.032c-0.21,0.017-1.293,0.397-1.637,0.508c-0.165,0.054-0.477,0.094-0.477,0.25v2.898
			c0,0.348,0.182,0.709,0.329,0.928c0.508,0.748,1.706,1.301,2.612,1.301h3.678c0.561,0,1.509-0.432,1.846-0.84
			c0.775-0.936,0.635-2.18,0.635-3.395c0-1.131-0.624-2.215-1.207-2.797c-0.255-0.254-0.061-0.155-0.501-0.496
			c-0.104-0.081-0.158-0.153-0.257-0.24l-3.57-3.046c-0.133-0.099-0.156-0.14-0.269-0.23c-0.163-0.129-0.492-0.175-0.8-0.74
			c-0.461-0.84-0.382-1.825-0.382-2.794c0-1.758,1.711-1.516,3.126-1.516c0.765,0,1.654,0.395,1.654,1.114v3.432
			c0.222-0.005,0.377-0.116,0.578-0.198l1.409-0.597c0.119-0.045,0.22-0.047,0.22-0.187v-2.941c0-0.424-0.203-0.783-0.4-1.039
			c-0.222-0.287-0.474-0.464-0.825-0.627c-1.19-0.55-3.069-0.43-4.521-0.43c-0.893,0-1.834,0.279-2.483,0.756
			C83.134,10.79,82.809,11.612,82.809,12.627"/>
		<path fill="#FFFFFF" d="M41.305,17.665c-0.02-0.234-2.168-5.474-2.362-6l-0.81-2.022c-0.287,0.024-1.854,0.571-2.207,0.58
			c0.022,0.247,2.869,6.59,3.247,7.414c0.193,0.422,0.356,0.787,0.541,1.214c0.087,0.203,0.531,1.13,0.531,1.267v7.043h2.114v-7.043
			c0-0.237,0.373-1.007,0.486-1.267c1.054-2.434,2.083-4.953,3.158-7.367l0.54-1.261l-1.58-0.474
			c-0.19-0.054-0.341-0.134-0.534-0.15l-0.385,1.008c-0.064,0.182-0.114,0.304-0.187,0.487l-2.318,6.088
			C41.466,17.377,41.458,17.557,41.305,17.665"/>
	</g>
</g>
</svg>
